# xmcd CD database file
#
# Track frame offsets:
#	150
#	6789
#	17137
#	27083
#	38471
#	53605
#	64340
#	74324
#	89579
#	107241
#	121543
#	130943
#	142172
#	152329
#
# Disc length: 2138 seconds
#
# Revision: 1
# Processed by: cddbd v1.5.2PL0 Copyright (c) Steve Scherf et al.
# Submitted via: Feurio! 1.68 - http://www.feurio.com
#
DISCID=b108580e
DTITLE=Elvis Presley  - The Golden Hits CD2
DYEAR=1900
DGENRE=
TTITLE0=Party
TTITLE1=I Want To Be Free
TTITLE2=Mean Woman Blues
TTITLE3=Is It So Strange
TTITLE4=First In Line
TTITLE5=How´s The World Treating You
TTITLE6=Treat Me Nice
TTITLE7=That´s When Your Heartaches Begin
TTITLE8=It Is No Secret (What God Can Do)
TTITLE9=(There´ll Be) Peace in the Valley
TTITLE10=I Believe
TTITLE11=Take My Hand, Precious Lord
TTITLE12=Loving You
TTITLE13=(Let Me Be Your) Teddy Bear
EXTD=
EXTT0=
EXTT1=
EXTT2=
EXTT3=
EXTT4=
EXTT5=
EXTT6=
EXTT7=
EXTT8=
EXTT9=
EXTT10=
EXTT11=
EXTT12=
EXTT13=
PLAYORDER=
